<?xml version="1.0" standalone="no"?>
<!DOCTYPE svg PUBLIC "-//W3C//DTD SVG 20010904//EN"
 "http://www.w3.org/TR/2001/REC-SVG-20010904/DTD/svg10.dtd">
<svg version="1.0" xmlns="http://www.w3.org/2000/svg"
 width="300.000000pt" height="300.000000pt" viewBox="0 0 300.000000 300.000000"
 preserveAspectRatio="xMidYMid meet">
<metadata>
Created by potrace 1.14, written by Peter Selinger 2001-2017
</metadata>
<g transform="translate(0.000000,300.000000) scale(0.100000,-0.100000)"
fill="#000000" stroke="none">
<path d="M0 1500 l0 -1500 1500 0 1500 0 0 1500 0 1500 -1500 0 -1500 0 0
-1500z m2680 1235 c47 -24 70 -62 70 -115 0 -88 -58 -130 -178 -130 l-69 0 -6
-56 c-8 -81 -56 -175 -128 -250 l-62 -64 80 -83 c97 -100 117 -144 111 -244
-5 -83 -26 -129 -93 -202 -50 -55 -51 -57 -42 -96 15 -60 14 -311 -1 -380 -19
-84 -60 -211 -90 -270 -46 -93 -132 -214 -208 -289 -227 -227 -551 -343 -864
-308 -242 27 -449 124 -624 292 -214 206 -326 468 -326 765 0 362 175 691 473
889 98 65 180 102 312 141 107 32 323 45 440 27 l70 -11 50 48 c75 74 125 95
215 96 97 0 140 -22 241 -121 l76 -75 50 55 c50 55 73 109 73 173 0 43 47 129
88 163 21 17 57 37 82 45 62 19 223 19 260 0z"/>
<path d="M1180 1859 c-219 -32 -389 -202 -420 -419 -12 -88 1 -135 49 -167 42
-28 86 -29 128 -3 41 25 51 44 62 123 11 76 27 111 73 156 46 45 80 61 155 72
36 5 73 14 84 20 29 15 59 69 59 104 0 34 -30 89 -57 103 -31 16 -76 20 -133
11z"/>
</g>
</svg>
